<?xml version="1.0" encoding="utf-8"?>
<!-- Generator: Adobe Illustrator 22.1.0, SVG Export Plug-In . SVG Version: 6.00 Build 0)  -->
<svg version="1.1" id="Layer_1" xmlns="http://www.w3.org/2000/svg" xmlns:xlink="http://www.w3.org/1999/xlink" x="0px" y="0px"
	 viewBox="0 0 196.2 78" style="enable-background:new 0 0 196.2 78;" xml:space="preserve">
<style type="text/css">
	.st0{fill-rule:evenodd;clip-rule:evenodd;fill:url(#SVGID_1_);}
	.st1{fill-rule:evenodd;clip-rule:evenodd;fill:url(#SVGID_2_);}
	.st2{fill-rule:evenodd;clip-rule:evenodd;fill:url(#SVGID_5_);}
	.st3{fill-rule:evenodd;clip-rule:evenodd;fill:url(#SVGID_6_);}
	.st4{fill-rule:evenodd;clip-rule:evenodd;fill:url(#SVGID_7_);}
	.st5{fill-rule:evenodd;clip-rule:evenodd;fill:url(#SVGID_8_);}
	.st6{fill-rule:evenodd;clip-rule:evenodd;fill:url(#SVGID_9_);}
	.st7{fill-rule:evenodd;clip-rule:evenodd;fill:url(#SVGID_10_);}
	.st8{fill-rule:evenodd;clip-rule:evenodd;fill:url(#SVGID_13_);}
	.st9{fill-rule:evenodd;clip-rule:evenodd;fill:url(#SVGID_14_);}
	.st10{fill-rule:evenodd;clip-rule:evenodd;fill:url(#SVGID_15_);}
	.st11{fill-rule:evenodd;clip-rule:evenodd;fill:url(#SVGID_16_);}
	.st12{fill-rule:evenodd;clip-rule:evenodd;fill:url(#SVGID_17_);}
	.st13{fill-rule:evenodd;clip-rule:evenodd;fill:url(#SVGID_18_);}
	.st14{fill-rule:evenodd;clip-rule:evenodd;fill:url(#SVGID_19_);}
	.st15{fill-rule:evenodd;clip-rule:evenodd;fill:url(#SVGID_20_);}
	.st16{fill-rule:evenodd;clip-rule:evenodd;fill:url(#SVGID_21_);}
	.st17{fill-rule:evenodd;clip-rule:evenodd;fill:url(#SVGID_22_);}
	.st18{fill-rule:evenodd;clip-rule:evenodd;fill:url(#SVGID_23_);}
	.st19{fill-rule:evenodd;clip-rule:evenodd;fill:url(#SVGID_24_);}
	.st20{fill-rule:evenodd;clip-rule:evenodd;fill:url(#SVGID_25_);}
	.st21{fill-rule:evenodd;clip-rule:evenodd;fill:url(#SVGID_26_);}
	.st22{fill-rule:evenodd;clip-rule:evenodd;fill:url(#SVGID_27_);}
	.st23{fill-rule:evenodd;clip-rule:evenodd;fill:url(#SVGID_30_);}
	.st24{fill-rule:evenodd;clip-rule:evenodd;fill:url(#SVGID_33_);}
	.st25{fill-rule:evenodd;clip-rule:evenodd;fill:url(#SVGID_34_);}
	.st26{fill-rule:evenodd;clip-rule:evenodd;fill:url(#SVGID_35_);}
	.st27{fill-rule:evenodd;clip-rule:evenodd;fill:url(#SVGID_36_);}
	.st28{fill-rule:evenodd;clip-rule:evenodd;fill:url(#SVGID_37_);}
	.st29{fill-rule:evenodd;clip-rule:evenodd;fill:url(#SVGID_38_);}
	.st30{fill-rule:evenodd;clip-rule:evenodd;fill:url(#SVGID_39_);}
	.st31{fill-rule:evenodd;clip-rule:evenodd;fill:url(#SVGID_40_);}
	.st32{fill-rule:evenodd;clip-rule:evenodd;fill:url(#SVGID_41_);}
	.st33{fill-rule:evenodd;clip-rule:evenodd;fill:url(#SVGID_42_);}
	.st34{fill-rule:evenodd;clip-rule:evenodd;fill:url(#SVGID_43_);}
	.st35{fill-rule:evenodd;clip-rule:evenodd;fill:url(#SVGID_44_);}
	.st36{fill-rule:evenodd;clip-rule:evenodd;fill:url(#SVGID_45_);}
	.st37{fill-rule:evenodd;clip-rule:evenodd;fill:url(#SVGID_48_);}
	.st38{fill-rule:evenodd;clip-rule:evenodd;fill:url(#SVGID_49_);}
	.st39{fill-rule:evenodd;clip-rule:evenodd;fill:url(#SVGID_52_);}
	.st40{fill-rule:evenodd;clip-rule:evenodd;fill:url(#SVGID_53_);}
	.st41{fill-rule:evenodd;clip-rule:evenodd;fill:url(#SVGID_58_);}
	.st42{fill-rule:evenodd;clip-rule:evenodd;fill:url(#SVGID_59_);}
</style>
<g>
	<linearGradient id="SVGID_1_" gradientUnits="userSpaceOnUse" x1="19.819" y1="28.967" x2="19.819" y2="228.2386">
		<stop  offset="0" style="stop-color:#0B74BC"/>
		<stop  offset="0.11" style="stop-color:#0B74BC"/>
		<stop  offset="0.97" style="stop-color:#056DAF"/>
		<stop  offset="1" style="stop-color:#056DAF"/>
	</linearGradient>
	<polygon class="st0" points="11.2,9.7 9.5,2.9 20.8,0 28.8,0 30.2,5.4 24.4,6.8 24.3,6.4 	"/>
	<linearGradient id="SVGID_2_" gradientUnits="userSpaceOnUse" x1="39.0851" y1="28.9673" x2="39.0851" y2="228.2398">
		<stop  offset="0" style="stop-color:#0A55A2"/>
		<stop  offset="0.11" style="stop-color:#0A55A2"/>
		<stop  offset="0.97" style="stop-color:#114F95"/>
		<stop  offset="1" style="stop-color:#114F95"/>
	</linearGradient>
	<polygon class="st1" points="32.6,3.5 31.8,0 46.4,0 	"/>
	<g>
		<defs>
			<polygon id="SVGID_3_" points="0,36 0,21.8 0,21.8 0,36 0,36 			"/>
		</defs>
		<clipPath id="SVGID_4_">
			<use xlink:href="#SVGID_3_"  style="overflow:visible;"/>
		</clipPath>
		<g style="clip-path:url(#SVGID_4_);">
			
				<image style="overflow:visible;" width="3" height="17" xlink:href="17870A430A0BE796.jpg"  transform="matrix(1.1737 0 0 1.0637 -2.1461 20.0404)">
			</image>
		</g>
	</g>
	<linearGradient id="SVGID_5_" gradientUnits="userSpaceOnUse" x1="1.6818" y1="28.9668" x2="1.6818" y2="228.2386">
		<stop  offset="0" style="stop-color:#168ACB"/>
		<stop  offset="0.11" style="stop-color:#168ACB"/>
		<stop  offset="0.97" style="stop-color:#0B7FBD"/>
		<stop  offset="1" style="stop-color:#0B7FBD"/>
	</linearGradient>
	<polygon class="st2" points="0,36 0,21.8 3.4,35.2 	"/>
	<linearGradient id="SVGID_6_" gradientUnits="userSpaceOnUse" x1="30.1377" y1="28.9665" x2="30.1377" y2="228.2379">
		<stop  offset="0" style="stop-color:#1E89CA"/>
		<stop  offset="0.11" style="stop-color:#1E89CA"/>
		<stop  offset="0.97" style="stop-color:#117EBE"/>
		<stop  offset="1" style="stop-color:#117EBE"/>
	</linearGradient>
	<polygon class="st3" points="29.9,28.3 25.5,11.1 30.4,9.9 34.8,27.1 	"/>
	<linearGradient id="SVGID_7_" gradientUnits="userSpaceOnUse" x1="66.5628" y1="28.9674" x2="66.5628" y2="228.2389">
		<stop  offset="0" style="stop-color:#21ADE4"/>
		<stop  offset="0.11" style="stop-color:#21ADE4"/>
		<stop  offset="0.97" style="stop-color:#129EDA"/>
		<stop  offset="1" style="stop-color:#129EDA"/>
	</linearGradient>
	<polygon class="st4" points="64.1,17.6 60.8,4.3 69,2.3 72.3,15.5 	"/>
	<linearGradient id="SVGID_8_" gradientUnits="userSpaceOnUse" x1="96.3503" y1="28.9669" x2="96.3503" y2="228.2384">
		<stop  offset="0" style="stop-color:#21ADE4"/>
		<stop  offset="0.11" style="stop-color:#21ADE4"/>
		<stop  offset="0.97" style="stop-color:#129EDA"/>
		<stop  offset="1" style="stop-color:#129EDA"/>
	</linearGradient>
	<polygon class="st5" points="95.8,9.6 93.4,0 97.1,0 99.3,8.7 	"/>
	<linearGradient id="SVGID_9_" gradientUnits="userSpaceOnUse" x1="106.1199" y1="28.9668" x2="106.1199" y2="228.2374">
		<stop  offset="0" style="stop-color:#1680C4"/>
		<stop  offset="0.11" style="stop-color:#1680C4"/>
		<stop  offset="0.97" style="stop-color:#0777B9"/>
		<stop  offset="1" style="stop-color:#0777B9"/>
	</linearGradient>
	<polygon class="st6" points="106.9,9 104.7,0 105.3,0 107.6,8.9 	"/>
	<linearGradient id="SVGID_10_" gradientUnits="userSpaceOnUse" x1="134.627" y1="28.9675" x2="134.627" y2="228.2406">
		<stop  offset="0" style="stop-color:#065BA7"/>
		<stop  offset="0.11" style="stop-color:#065BA7"/>
		<stop  offset="0.97" style="stop-color:#01549C"/>
		<stop  offset="1" style="stop-color:#01549C"/>
	</linearGradient>
	<polygon class="st7" points="129.9,4.5 128.7,0 140.1,0 140.5,1.8 	"/>
	<g>
		<defs>
			<polygon id="SVGID_11_" points="0,48.8 0,48.8 0,40.8 0,40.8 0,48.8 			"/>
		</defs>
		<clipPath id="SVGID_12_">
			<use xlink:href="#SVGID_11_"  style="overflow:visible;"/>
		</clipPath>
		<g style="clip-path:url(#SVGID_12_);">
			
				<image style="overflow:visible;" width="3" height="11" xlink:href="17870A430A0BE79A.jpg"  transform="matrix(1.1737 0 0 1.0709 -2.1461 38.7283)">
			</image>
		</g>
	</g>
	<linearGradient id="SVGID_13_" gradientUnits="userSpaceOnUse" x1="9.3466" y1="28.9671" x2="9.3466" y2="228.2371">
		<stop  offset="0" style="stop-color:#0981C4"/>
		<stop  offset="0.11" style="stop-color:#0981C4"/>
		<stop  offset="0.97" style="stop-color:#0775B5"/>
		<stop  offset="1" style="stop-color:#0775B5"/>
	</linearGradient>
	<polygon class="st8" points="2.7,59.5 0,48.8 0,40.8 14.1,37.3 18.7,55.5 	"/>
	<linearGradient id="SVGID_14_" gradientUnits="userSpaceOnUse" x1="29.6339" y1="28.9667" x2="29.6338" y2="228.2393">
		<stop  offset="0" style="stop-color:#43C1F0"/>
		<stop  offset="0.11" style="stop-color:#43C1F0"/>
		<stop  offset="0.97" style="stop-color:#35B0DB"/>
		<stop  offset="1" style="stop-color:#35B0DB"/>
	</linearGradient>
	<polygon class="st9" points="27.3,47 25.7,40.7 32,39.1 33.6,45.4 	"/>
	<linearGradient id="SVGID_15_" gradientUnits="userSpaceOnUse" x1="52.0016" y1="28.9668" x2="52.0016" y2="228.2375">
		<stop  offset="0" style="stop-color:#25BFF0"/>
		<stop  offset="0.11" style="stop-color:#25BFF0"/>
		<stop  offset="0.97" style="stop-color:#22AEDA"/>
		<stop  offset="1" style="stop-color:#22AEDA"/>
	</linearGradient>
	<polygon class="st10" points="49.8,41.1 48.3,35.2 54.2,33.7 55.7,39.6 	"/>
	<linearGradient id="SVGID_16_" gradientUnits="userSpaceOnUse" x1="74.3699" y1="28.9663" x2="74.3699" y2="228.2388">
		<stop  offset="0" style="stop-color:#23A1DB"/>
		<stop  offset="0.11" style="stop-color:#23A1DB"/>
		<stop  offset="0.97" style="stop-color:#0794D3"/>
		<stop  offset="1" style="stop-color:#0794D3"/>
	</linearGradient>
	<polygon class="st11" points="68.9,40.9 65.3,26.3 79.8,22.6 83.5,37.2 	"/>
	<linearGradient id="SVGID_17_" gradientUnits="userSpaceOnUse" x1="96.7388" y1="28.9668" x2="96.7388" y2="228.2368">
		<stop  offset="0" style="stop-color:#0DC1F2"/>
		<stop  offset="0.11" style="stop-color:#0DC1F2"/>
		<stop  offset="0.97" style="stop-color:#0EAFDB"/>
		<stop  offset="1" style="stop-color:#0EAFDB"/>
	</linearGradient>
	<polygon class="st12" points="94.5,29.9 92.9,23.9 99,22.3 100.5,28.4 	"/>
	<linearGradient id="SVGID_18_" gradientUnits="userSpaceOnUse" x1="119.1069" y1="28.9671" x2="119.1069" y2="228.2375">
		<stop  offset="0" style="stop-color:#25BFF0"/>
		<stop  offset="0.11" style="stop-color:#25BFF0"/>
		<stop  offset="0.97" style="stop-color:#22AEDA"/>
		<stop  offset="1" style="stop-color:#22AEDA"/>
	</linearGradient>
	<polygon class="st13" points="117.1,23.9 115.7,18.4 121.1,17.1 122.5,22.5 	"/>
	<linearGradient id="SVGID_19_" gradientUnits="userSpaceOnUse" x1="141.4725" y1="28.9672" x2="141.4725" y2="228.2419">
		<stop  offset="0" style="stop-color:#90D2F4"/>
		<stop  offset="0.11" style="stop-color:#90D2F4"/>
		<stop  offset="0.97" style="stop-color:#82C1E0"/>
		<stop  offset="1" style="stop-color:#82C1E0"/>
	</linearGradient>
	<polygon class="st14" points="140.9,15.8 140.5,14.2 142.1,13.8 142.5,15.4 	"/>
	<linearGradient id="SVGID_20_" gradientUnits="userSpaceOnUse" x1="163.8406" y1="28.967" x2="163.8406" y2="228.2392">
		<stop  offset="0" style="stop-color:#3FC1F0"/>
		<stop  offset="0.11" style="stop-color:#3FC1F0"/>
		<stop  offset="0.97" style="stop-color:#2EB1DC"/>
		<stop  offset="1" style="stop-color:#2EB1DC"/>
	</linearGradient>
	<polygon class="st15" points="161.7,12.7 160.3,7.1 165.9,5.7 167.4,11.3 	"/>
	<linearGradient id="SVGID_21_" gradientUnits="userSpaceOnUse" x1="186.2086" y1="28.9668" x2="186.2086" y2="228.2383">
		<stop  offset="0" style="stop-color:#49C2F0"/>
		<stop  offset="0.11" style="stop-color:#49C2F0"/>
		<stop  offset="0.97" style="stop-color:#3BB1DC"/>
		<stop  offset="1" style="stop-color:#3BB1DC"/>
	</linearGradient>
	<polygon class="st16" points="183.9,7.4 182.4,1.3 187.3,0 188.6,0 190.1,5.9 	"/>
	<linearGradient id="SVGID_22_" gradientUnits="userSpaceOnUse" x1="192.8954" y1="28.9668" x2="192.8954" y2="228.2381">
		<stop  offset="0" style="stop-color:#C5E9F7"/>
		<stop  offset="0.11" style="stop-color:#C5E9F7"/>
		<stop  offset="0.97" style="stop-color:#B2D5E4"/>
		<stop  offset="1" style="stop-color:#B2D5E4"/>
	</linearGradient>
	<polygon class="st17" points="190.9,17.5 189.6,12.2 194.9,10.8 196.2,16.2 	"/>
	<linearGradient id="SVGID_23_" gradientUnits="userSpaceOnUse" x1="158.9094" y1="28.9671" x2="158.9094" y2="228.2371">
		<stop  offset="0" style="stop-color:#C0E7F6"/>
		<stop  offset="0.11" style="stop-color:#C0E7F6"/>
		<stop  offset="0.97" style="stop-color:#ACD4E5"/>
		<stop  offset="1" style="stop-color:#ACD4E5"/>
	</linearGradient>
	<polygon class="st18" points="156.6,26.7 155,20.4 161.3,18.8 162.8,25.1 	"/>
	<linearGradient id="SVGID_24_" gradientUnits="userSpaceOnUse" x1="124.9286" y1="28.9669" x2="124.9286" y2="228.2394">
		<stop  offset="0" style="stop-color:#C2E8F7"/>
		<stop  offset="0.11" style="stop-color:#C2E8F7"/>
		<stop  offset="0.97" style="stop-color:#B2D7E6"/>
		<stop  offset="1" style="stop-color:#B2D7E6"/>
	</linearGradient>
	<polygon class="st19" points="122.9,34.6 121.6,29.3 126.9,28 128.3,33.3 	"/>
	<linearGradient id="SVGID_25_" gradientUnits="userSpaceOnUse" x1="90.9454" y1="28.9676" x2="90.9454" y2="228.239">
		<stop  offset="0" style="stop-color:#A0DCF1"/>
		<stop  offset="0.11" style="stop-color:#A0DCF1"/>
		<stop  offset="0.97" style="stop-color:#8CCDE2"/>
		<stop  offset="1" style="stop-color:#8CCDE2"/>
	</linearGradient>
	<polygon class="st20" points="86.2,47.8 83,35.1 95.7,31.9 98.9,44.6 	"/>
	<linearGradient id="SVGID_26_" gradientUnits="userSpaceOnUse" x1="56.9622" y1="28.9672" x2="56.9621" y2="228.2375">
		<stop  offset="0" style="stop-color:#A0DCF3"/>
		<stop  offset="0.11" style="stop-color:#A0DCF3"/>
		<stop  offset="0.97" style="stop-color:#8CCDE2"/>
		<stop  offset="1" style="stop-color:#8CCDE2"/>
	</linearGradient>
	<polygon class="st21" points="52.2,56.5 49,43.7 61.7,40.4 65,53.2 	"/>
	<linearGradient id="SVGID_27_" gradientUnits="userSpaceOnUse" x1="22.9771" y1="28.9667" x2="22.9771" y2="228.2381">
		<stop  offset="0" style="stop-color:#BCE6F7"/>
		<stop  offset="0.11" style="stop-color:#BCE6F7"/>
		<stop  offset="0.97" style="stop-color:#A8D3E4"/>
		<stop  offset="1" style="stop-color:#A8D3E4"/>
	</linearGradient>
	<polygon class="st22" points="20.4,61.3 18.7,54.5 25.5,52.8 27.2,59.6 	"/>
	<g>
		<defs>
			<polygon id="SVGID_28_" points="0,78 0,58.3 0,58.3 0,78 0,78 			"/>
		</defs>
		<clipPath id="SVGID_29_">
			<use xlink:href="#SVGID_28_"  style="overflow:visible;"/>
		</clipPath>
		<g style="clip-path:url(#SVGID_29_);">
			
				<image style="overflow:visible;" width="3" height="22" xlink:href="17870A430A0BE79D.jpg"  transform="matrix(1.1737 0 0 1.0591 -2.1461 56.5421)">
			</image>
		</g>
	</g>
	<linearGradient id="SVGID_30_" gradientUnits="userSpaceOnUse" x1="3.467" y1="28.9664" x2="3.4669" y2="228.2368">
		<stop  offset="0" style="stop-color:#9AC7E3"/>
		<stop  offset="0.11" style="stop-color:#9AC7E3"/>
		<stop  offset="0.97" style="stop-color:#8BB7D2"/>
		<stop  offset="1" style="stop-color:#8BB7D2"/>
	</linearGradient>
	<polygon class="st23" points="0,78 0,58.3 0.4,60.1 2.7,59.5 6.9,76.3 	"/>
	<g>
		<defs>
			<polygon id="SVGID_31_" points="0,58.3 0,58.3 0,48.8 0,48.8 0,58.3 			"/>
		</defs>
		<clipPath id="SVGID_32_">
			<use xlink:href="#SVGID_31_"  style="overflow:visible;"/>
		</clipPath>
		<g style="clip-path:url(#SVGID_32_);">
			
				<image style="overflow:visible;" width="3" height="12" xlink:href="17870A430A0BE79E.jpg"  transform="matrix(1.1737 0 0 1.0541 -2.1461 47.2021)">
			</image>
		</g>
	</g>
	<linearGradient id="SVGID_33_" gradientUnits="userSpaceOnUse" x1="1.3535" y1="28.9672" x2="1.3534" y2="228.2393">
		<stop  offset="0" style="stop-color:#0E7CC1"/>
		<stop  offset="0.11" style="stop-color:#0E7CC1"/>
		<stop  offset="0.97" style="stop-color:#0B72B2"/>
		<stop  offset="1" style="stop-color:#0B72B2"/>
	</linearGradient>
	<polygon class="st24" points="0.4,60.1 0,58.3 0,48.8 2.7,59.5 	"/>
	<linearGradient id="SVGID_34_" gradientUnits="userSpaceOnUse" x1="149.1198" y1="28.9671" x2="149.1198" y2="228.2399">
		<stop  offset="0" style="stop-color:#9CDBF5"/>
		<stop  offset="0.11" style="stop-color:#9CDBF5"/>
		<stop  offset="0.97" style="stop-color:#8EC6DE"/>
		<stop  offset="1" style="stop-color:#8EC6DE"/>
	</linearGradient>
	<polygon class="st25" points="141.1,4.2 140.5,1.8 147.8,0 157.7,0 	"/>
	<linearGradient id="SVGID_35_" gradientUnits="userSpaceOnUse" x1="143.9095" y1="28.9667" x2="143.9095" y2="228.2368">
		<stop  offset="0" style="stop-color:#1277BD"/>
		<stop  offset="0.11" style="stop-color:#1277BD"/>
		<stop  offset="0.97" style="stop-color:#026DB1"/>
		<stop  offset="1" style="stop-color:#026DB1"/>
	</linearGradient>
	<polygon class="st26" points="140.5,1.8 140.1,0 147.8,0 	"/>
	<linearGradient id="SVGID_36_" gradientUnits="userSpaceOnUse" x1="118.8527" y1="28.967" x2="118.8527" y2="228.238">
		<stop  offset="0" style="stop-color:#9DDCF3"/>
		<stop  offset="0.11" style="stop-color:#9DDCF3"/>
		<stop  offset="0.97" style="stop-color:#8EC6DE"/>
		<stop  offset="1" style="stop-color:#8EC6DE"/>
	</linearGradient>
	<polygon class="st27" points="108.1,11.1 107.6,8.9 124.4,4.6 123.2,0 127.2,0 128.4,4.9 129.9,4.5 130.1,5.5 	"/>
	<linearGradient id="SVGID_37_" gradientUnits="userSpaceOnUse" x1="114.8676" y1="28.9669" x2="114.8676" y2="228.2382">
		<stop  offset="0" style="stop-color:#188ECE"/>
		<stop  offset="0.11" style="stop-color:#188ECE"/>
		<stop  offset="0.97" style="stop-color:#0D80C1"/>
		<stop  offset="1" style="stop-color:#0D80C1"/>
	</linearGradient>
	<polygon class="st28" points="107.6,8.9 105.3,0 123.2,0 124.4,4.6 	"/>
	<linearGradient id="SVGID_38_" gradientUnits="userSpaceOnUse" x1="128.5278" y1="28.9673" x2="128.5278" y2="228.24">
		<stop  offset="0" style="stop-color:#1576BC"/>
		<stop  offset="0.11" style="stop-color:#1576BC"/>
		<stop  offset="0.97" style="stop-color:#096BB1"/>
		<stop  offset="1" style="stop-color:#096BB1"/>
	</linearGradient>
	<polygon class="st29" points="128.4,4.9 127.2,0 128.7,0 129.9,4.5 	"/>
	<linearGradient id="SVGID_39_" gradientUnits="userSpaceOnUse" x1="82.7392" y1="28.9661" x2="82.7392" y2="228.2378">
		<stop  offset="0" style="stop-color:#9DD5EF"/>
		<stop  offset="0.11" style="stop-color:#9DD5EF"/>
		<stop  offset="0.97" style="stop-color:#8CC2DC"/>
		<stop  offset="1" style="stop-color:#8CC2DC"/>
	</linearGradient>
	<polygon class="st30" points="73.6,20.6 72.3,15.5 77,14.3 73.7,1.1 69,2.3 68.4,0 83.2,0 86.2,12 95.8,9.6 97.1,14.7 	"/>
	<linearGradient id="SVGID_40_" gradientUnits="userSpaceOnUse" x1="73.0071" y1="28.9676" x2="73.0071" y2="228.239">
		<stop  offset="0" style="stop-color:#25A4DE"/>
		<stop  offset="0.11" style="stop-color:#25A4DE"/>
		<stop  offset="0.97" style="stop-color:#0697D1"/>
		<stop  offset="1" style="stop-color:#0697D1"/>
	</linearGradient>
	<polygon class="st31" points="72.3,15.5 69,2.3 73.7,1.1 77,14.3 	"/>
	<linearGradient id="SVGID_41_" gradientUnits="userSpaceOnUse" x1="89.4671" y1="28.9675" x2="89.4671" y2="228.2392">
		<stop  offset="0" style="stop-color:#25A4DE"/>
		<stop  offset="0.11" style="stop-color:#25A4DE"/>
		<stop  offset="0.97" style="stop-color:#0697D1"/>
		<stop  offset="1" style="stop-color:#0697D1"/>
	</linearGradient>
	<polygon class="st32" points="86.2,12 83.2,0 93.4,0 95.8,9.6 	"/>
	<linearGradient id="SVGID_42_" gradientUnits="userSpaceOnUse" x1="48.3915" y1="28.9675" x2="48.3915" y2="228.237">
		<stop  offset="0" style="stop-color:#9ACAE5"/>
		<stop  offset="0.11" style="stop-color:#9ACAE5"/>
		<stop  offset="0.97" style="stop-color:#8CB9D4"/>
		<stop  offset="1" style="stop-color:#8CB9D4"/>
	</linearGradient>
	<path class="st33" d="M37.9,32.1L30.8,3.9l1.8-0.5l0.5,1.9l20.3-5.1L53.4,0h6.3l1.1,4.3l-0.4,0.1l3.3,13.2l0.4-0.1L66,25L37.9,32.1
		L37.9,32.1z M51.5,6.4L37.7,9.9l3.5,13.8L55,20.2L51.5,6.4z"/>
	<linearGradient id="SVGID_43_" gradientUnits="userSpaceOnUse" x1="43.0445" y1="28.9674" x2="43.0445" y2="228.2402">
		<stop  offset="0" style="stop-color:#0864AF"/>
		<stop  offset="0.11" style="stop-color:#0864AF"/>
		<stop  offset="0.97" style="stop-color:#045BA4"/>
		<stop  offset="1" style="stop-color:#045BA4"/>
	</linearGradient>
	<polygon class="st34" points="33.1,5.4 32.6,3.5 46.4,0 53.4,0 53.5,0.3 	"/>
	<linearGradient id="SVGID_44_" gradientUnits="userSpaceOnUse" x1="46.3612" y1="28.9672" x2="46.3612" y2="228.2378">
		<stop  offset="0" style="stop-color:#1C97D4"/>
		<stop  offset="0.11" style="stop-color:#1C97D4"/>
		<stop  offset="0.97" style="stop-color:#178AC6"/>
		<stop  offset="1" style="stop-color:#178AC6"/>
	</linearGradient>
	<polygon class="st35" points="41.2,23.7 37.7,9.9 51.5,6.4 55,20.2 	"/>
	<linearGradient id="SVGID_45_" gradientUnits="userSpaceOnUse" x1="62.286" y1="28.9672" x2="62.286" y2="228.238">
		<stop  offset="0" style="stop-color:#1599D6"/>
		<stop  offset="0.11" style="stop-color:#1599D6"/>
		<stop  offset="0.97" style="stop-color:#158EC9"/>
		<stop  offset="1" style="stop-color:#158EC9"/>
	</linearGradient>
	<polygon class="st36" points="63.8,17.7 60.4,4.4 60.8,4.3 64.1,17.6 	"/>
	<g>
		<defs>
			<polygon id="SVGID_46_" points="0,17.4 0,12.6 0,12.6 0,17.4 0,17.4 			"/>
		</defs>
		<clipPath id="SVGID_47_">
			<use xlink:href="#SVGID_46_"  style="overflow:visible;"/>
		</clipPath>
		<g style="clip-path:url(#SVGID_47_);">
			
				<image style="overflow:visible;" width="3" height="8" xlink:href="17870A430A0BE79C.jpg"  transform="matrix(1.1737 0 0 1.065 -2.1461 10.6999)">
			</image>
		</g>
	</g>
	<linearGradient id="SVGID_48_" gradientUnits="userSpaceOnUse" x1="15.5072" y1="28.9675" x2="15.5072" y2="228.2379">
		<stop  offset="0" style="stop-color:#9BD0EA"/>
		<stop  offset="0.11" style="stop-color:#9BD0EA"/>
		<stop  offset="0.97" style="stop-color:#8DBED9"/>
		<stop  offset="1" style="stop-color:#8DBED9"/>
	</linearGradient>
	<polygon class="st37" points="4.5,39.6 3.4,35.2 12.6,32.8 8.2,15.4 0,17.4 0,12.6 11.2,9.7 11.3,10.1 24.4,6.8 25.5,11.1 
		13.2,14.2 17.6,31.4 29.9,28.3 31,32.9 	"/>
	<linearGradient id="SVGID_49_" gradientUnits="userSpaceOnUse" x1="17.8155" y1="28.9668" x2="17.8155" y2="228.2358">
		<stop  offset="0" style="stop-color:#167EC2"/>
		<stop  offset="0.11" style="stop-color:#167EC2"/>
		<stop  offset="0.97" style="stop-color:#0574B5"/>
		<stop  offset="1" style="stop-color:#0574B5"/>
	</linearGradient>
	<polygon class="st38" points="11.3,10.1 11.2,9.7 24.3,6.4 24.4,6.8 	"/>
	<g>
		<defs>
			<polygon id="SVGID_50_" points="0,21.8 0,21.8 0,17.4 0,17.4 0,21.8 			"/>
		</defs>
		<clipPath id="SVGID_51_">
			<use xlink:href="#SVGID_50_"  style="overflow:visible;"/>
		</clipPath>
		<g style="clip-path:url(#SVGID_51_);">
			
				<image style="overflow:visible;" width="3" height="7" xlink:href="17870A430A0BE79B.jpg"  transform="matrix(1.1737 0 0 1.0619 -2.1461 15.915)">
			</image>
		</g>
	</g>
	<linearGradient id="SVGID_52_" gradientUnits="userSpaceOnUse" x1="6.2765" y1="28.9676" x2="6.2765" y2="228.2404">
		<stop  offset="0" style="stop-color:#168ACB"/>
		<stop  offset="0.11" style="stop-color:#168ACB"/>
		<stop  offset="0.97" style="stop-color:#0B7FBD"/>
		<stop  offset="1" style="stop-color:#0B7FBD"/>
	</linearGradient>
	<polygon class="st39" points="3.4,35.2 0,21.8 0,17.4 8.2,15.4 12.6,32.8 	"/>
	<linearGradient id="SVGID_53_" gradientUnits="userSpaceOnUse" x1="21.5421" y1="28.9677" x2="21.5421" y2="228.2388">
		<stop  offset="0" style="stop-color:#1D89CA"/>
		<stop  offset="0.11" style="stop-color:#1D89CA"/>
		<stop  offset="0.97" style="stop-color:#0F7EBC"/>
		<stop  offset="1" style="stop-color:#0F7EBC"/>
	</linearGradient>
	<polygon class="st40" points="17.6,31.4 13.2,14.2 25.5,11.1 29.9,28.3 	"/>
	<g>
		<defs>
			<polygon id="SVGID_54_" points="0,5.3 0,3.5 0,3.5 0,5.3 0,5.3 			"/>
		</defs>
		<clipPath id="SVGID_55_">
			<use xlink:href="#SVGID_54_"  style="overflow:visible;"/>
		</clipPath>
		<g style="clip-path:url(#SVGID_55_);">
			
				<image style="overflow:visible;" width="3" height="5" xlink:href="17870A430A0BE795.jpg"  transform="matrix(1.1737 0 0 1.0954 -2.1461 1.3577)">
			</image>
		</g>
	</g>
	<g>
		<defs>
			<polygon id="SVGID_56_" points="0,3.5 0,3.5 0,0 0,3.5 			"/>
		</defs>
		<clipPath id="SVGID_57_">
			<use xlink:href="#SVGID_56_"  style="overflow:visible;"/>
		</clipPath>
		<g style="clip-path:url(#SVGID_57_);">
			
				<image style="overflow:visible;" width="3" height="6" xlink:href="17870A430A0BE797.jpg"  transform="matrix(1.1737 0 0 1.094 -2.1461 -1.9018)">
			</image>
		</g>
	</g>
	<linearGradient id="SVGID_58_" gradientUnits="userSpaceOnUse" x1="4.7383" y1="29.0378" x2="4.7383" y2="228.9047">
		<stop  offset="0" style="stop-color:#99CCE6"/>
		<stop  offset="0.11" style="stop-color:#99CCE6"/>
		<stop  offset="0.97" style="stop-color:#8DBAD5"/>
		<stop  offset="1" style="stop-color:#8DBAD5"/>
	</linearGradient>
	<path class="st41" d="M8.8,0l0.7,2.9L0,5.2C0,3.5,0,1.7,0,0c0.5,0,0.9,0,1.4,0c0.8,0,1.5,0,2.2,0H8.8z"/>
	<linearGradient id="SVGID_59_" gradientUnits="userSpaceOnUse" x1="14.799" y1="28.9667" x2="14.799" y2="228.2362">
		<stop  offset="0" style="stop-color:#0B7ABF"/>
		<stop  offset="0.11" style="stop-color:#0B7ABF"/>
		<stop  offset="0.97" style="stop-color:#066FB1"/>
		<stop  offset="1" style="stop-color:#066FB1"/>
	</linearGradient>
	<polygon class="st42" points="9.5,2.9 8.8,0 20.8,0 	"/>
</g>
</svg>
