<svg xmlns="http://www.w3.org/2000/svg" viewBox="0 0 165.03 151.24"><defs><style>.cls-1{fill:#dddede;fill-rule:evenodd;}</style></defs><title>Asset 1</title><g id="Layer_2" data-name="Layer 2"><g id="Layer_1-2" data-name="Layer 1"><path class="cls-1" d="M87.18,29.82c.62-.35,1.24-.69,1.87-1a1.67,1.67,0,0,1,1.23.73c1.08,1.34-.66,2.5-1.44,3.23-6.65,6.28-13.45,12.62-20,18.92-.56.53-1,1.13-1.64,1.17a1.59,1.59,0,0,1-1.58-.73,2.12,2.12,0,0,1-.25-.86,1.89,1.89,0,0,1,.18-.79c.19-.55,1-1.15,1.48-1.59L87,30l.15-.15ZM104,23.28h0C99.53,27.53,95,31.76,90.48,36c-.87.83-1.09,1-1,2a1.71,1.71,0,0,0,1.69,1.27c.84-.08,1.38-.73,2.07-1.38l10.44-9.85c.72-.67,1.19-1.3,2.07-1.2a1.74,1.74,0,0,1,1.55,1.52c.08.92-.32,1.23-1.13,2L91.6,44.16a26.41,26.41,0,0,0-2.08,2,2,2,0,0,0-.31,1,1.65,1.65,0,0,0,2.38,1.45,21.34,21.34,0,0,0,2.08-1.91c5.6-5.22,11.11-10.54,16.71-15.76a4.63,4.63,0,0,1,2.07-1.47,1.77,1.77,0,0,1,1.89,2.17,3,3,0,0,1-.68,1c-2.77,2.63-5.66,5.19-8.36,7.88-1.31,1.29-2,1.36-1.52,3a1.68,1.68,0,0,0,2.8.35l4.18-3.94c.79-.74,1.18-1.15,2-.92a1.74,1.74,0,0,1,1.33,1.66c0,.89-.72,1.41-1.33,2l-10.45,9.87a28.92,28.92,0,0,1,6.43-1.58l3-2.8,10.44-9.86c.83-.79,1.5-1.52,2.55-1.33s2,1.75.6,3.13-2.81,2.65-4.18,3.94L117,48c-.61.56-1.53,1.3-1.7,2a1.58,1.58,0,0,0,.12,1c4.69.43,6.28,1.85,9.19,3.6l7.2-6.84c.66-.62,1.1-1.06,1.85-1a1.68,1.68,0,0,1,1,3c-.55.58-1.27,1.2-1.87,1.76s-5.23,4.8-5.55,5.3h0c.35.34.7.68,1,1s.8.88,1.18,1.33c1-.64,2.27-2.19,3.07-2.7a1.59,1.59,0,0,1,1.82.18c1.63,1.53-.08,2.79-1,3.62L131.53,62a21.23,21.23,0,0,1,1.52,3c3.38-3.18,6.76-6.34,10.13-9.52.7-.66,1-1.16,1.84-1.29a1.69,1.69,0,0,1,1.63,2.64c-.65.75-8.36,8-12.48,11.83,1.2,5.35,1.28,9.37-1.69,15.42,4.91-4.59,9.78-9.22,14.67-13.84,1.23-1.16,2.47-2.38,3.73-3.52a1.28,1.28,0,0,1,.9-.44,2.05,2.05,0,0,1,.43,0,1.68,1.68,0,0,1,1.19,2.68c-.28.32-.6.6-.91.89l-5.66,5.34c-.68.65-1.2,1-1.41,1.77a1.66,1.66,0,0,0,1.67,2,1.13,1.13,0,0,0,.9-.35c.82-.61,8.28-7.78,9.4-8.84.69-.66,1.12-1,1.85-.92a2.92,2.92,0,0,1,.91.32,1.35,1.35,0,0,1,.58.92c.4,1.51-1.34,2.6-2.37,3.57-5.62,5.31-11.29,10.57-16.87,15.92-.66.64-1.22,1-1.27,1.77a1.69,1.69,0,0,0,2.86,1.24L154.3,82c.61-.58,1.07-1.23,1.87-1.33a1.69,1.69,0,0,1,1.49,2.8c-1.82,1.8-3.74,3.53-5.61,5.29l-11.2,10.58a2.07,2.07,0,0,0-.9,1.78,1.65,1.65,0,0,0,2.12,1.38,2.34,2.34,0,0,0,.91-.68l16.87-15.92c.61-.58,1.24-1.2,1.87-1.75a5,5,0,0,1,1.09-.77,57.49,57.49,0,0,0,1.72-8.1,51.62,51.62,0,0,0,.49-8c-.06-2-.13-2.76-.3-4.54Q163,48.47,152.19,37a50,50,0,0,0-11-8.87,38.65,38.65,0,0,0-10.92-4.58,51.16,51.16,0,0,0-16.37-1.6A59,59,0,0,0,104,23.28Zm56.3,67h0a65.32,65.32,0,0,1-4,7.89,1.7,1.7,0,0,1-1.36-.28c-.4-.24-.39-.51-.51-.85-.27-.72,0-1.25.67-1.86L157,93.4c1-1,2.2-2,3.37-3.13ZM116.45,106h0a2.65,2.65,0,0,1-.25-.69c-.12-.39,0-.27,0-.67a3,3,0,0,1,1-1.49c1.37-1.18,3.58-3.36,5-4.65l13.07-12.34c1.07-1,2.21-2.19,3.29-3.13a1.7,1.7,0,0,1,2.83.94c0,.73,0,.85-.61,1.52-1.29,1.31-3.55,3.35-4.95,4.67l-13.07,12.34a11.55,11.55,0,0,1-1.54,1.4,11.21,11.21,0,0,0-1.62,1.42,4.16,4.16,0,0,1-1.66,1.24,1.14,1.14,0,0,1-1.4-.56ZM69.56,55.92h0c-.46.08-1.65,1.42-1.92,1.82a5.91,5.91,0,0,1-.87.79c-1.24.8-.47.09-1.33,1.3-.18.25-.24.3-.25.57v.24c-.49.67.7,1.62,1.26,1.73.3.06.26.07.53-.06s.39-.18.53-.26c.32-.18,5.22-4.82,5.44-5.09.22,0,.2-.11.44-.17a3.69,3.69,0,0,1,.49,0c.68,0,.71.12,1,.42.43.66.67.52.72,1.35A2.26,2.26,0,0,1,75,59.89l-.8.74c-.76.51-4.23,3.92-5.36,5-.75.72-1.84,1.43-1.6,2.59a1.65,1.65,0,0,0,2.2,1.23C70,69.2,82.1,57.64,83.9,55.92c.71-.68,1.18-.93,1.24-1.73a1.65,1.65,0,0,0-2.66-1.42,1.69,1.69,0,0,1-1.78.5,1.91,1.91,0,0,1-1.19-1.54c-.06-.8.25-1,1-1.73q1.8-1.72,3.62-3.43c.66-.62,1.71-1.51,1.22-2.58a1.61,1.61,0,0,0-2.55-.66c-.87.68-7.73,7.27-9.06,8.52a29,29,0,0,0-3.39,3.35l-.77.72Zm47,59.16h0v0Zm.33.9h0c-1.42-.49-1.31-2.57-.33-2.76a15.88,15.88,0,0,0,1.74-1.74c.54-.72,1.53-1.12,2.18-2s9.67-9.23,11.18-10.65,2-2.36,3.31-2.13a1.68,1.68,0,0,1,.53,3L130.94,104a1.59,1.59,0,0,0-.68,1.61A1.75,1.75,0,0,0,132.6,107c.52-.19.89-1.08,2.2-.67a1.27,1.27,0,0,1,.95.81c.49,1.53-.42,1.9-1.89,3.29-.27.26-13,12.35-13.5,12.69a1.74,1.74,0,0,1-2.12-.46,1.82,1.82,0,0,1,.24-2.22c1.93-1.93,4.65-4.39,6.76-6.38.87-.82,1.25-1.17,1-2.17-.13-.63-1.34-2.13-3-.59l-3.41,3.21c-.62.58-1.5,1.69-2.25,1.62-.18,0,0,0-.18,0l-.16,0a.7.7,0,0,1-.42-.12Zm.4-.42h0l-.06.21.06-.21Zm-.06.21h0v0l.43.3-.42-.34ZM93.3,148.56h0a1.62,1.62,0,0,1-2.07-2.17c.18-.62,1-1.14,1.49-1.65s1.35-1.42,1.79-1.53a1.61,1.61,0,0,1,.86-.1,1.66,1.66,0,0,1,1.35,2.16,21,21,0,0,1-3.42,3.29Zm11.38-1.26h0l-3.29,3.11c-1.89,1.78-3.25.33-3.25-.77,0-.83.55-1.23,1.31-1.95,1.11-1.05,3-2.87,4-3.78a1.5,1.5,0,0,1,2-.33,1.57,1.57,0,0,1,.79,1.8c-.28.9-.77,1.17-1.56,1.92Zm-23,3.15h0a1.63,1.63,0,0,1-2.48-1.73c.08-.48.42-.75.84-1.15.74-.71,4.36-4.2,4.87-4.55,1.37-.92,3.65,1,1.61,2.94-.76.71-4.33,4.25-4.84,4.49Zm-19.2-77h0a1.27,1.27,0,0,1,.56.69,2.52,2.52,0,0,1,.15.75c-.05.73-.29.87-.87,1.41l-6,5.71c-.72.67-1.37,1.57-2.29,1.37a1.57,1.57,0,0,1-1.39-1.74,1.9,1.9,0,0,1,.83-1.44l6.05-5.7c.62-.58,1.68-1.89,3-1Zm43.27,63.46h0a1.6,1.6,0,0,1-2.21-.52,1.41,1.41,0,0,1-.2-.75,1.67,1.67,0,0,1,.55-1.41c1.21-1.17,7.27-7,7.62-7.12a1.64,1.64,0,0,1,1.83,2.7c-1.19,1.13-7,6.71-7.59,7.1Zm-21.38,1.7h0a1.5,1.5,0,0,1-2.2-.43,1.15,1.15,0,0,1-.27-.76c-.16-1.14,1.07-1.95,2-2.87.77-.72,5.7-5.49,6.09-5.65a1.88,1.88,0,0,1,2.16.43,4.69,4.69,0,0,1,.28.75c.25,1.12-1.13,2-2,2.87s-5.39,5.21-6.06,5.66ZM48.53,68.31h0a1.7,1.7,0,0,1-.12-1.76c.18-.48,1.26-1.33,1.7-1.74L57.36,58a5.24,5.24,0,0,1,1.82-1.4,1.66,1.66,0,0,1,1.76.55c1.2,1.35-.72,2.68-1.6,3.5l-7.25,6.84c-.45.43-1.29,1.37-1.81,1.49a1.71,1.71,0,0,1-1.75-.63Zm52.91,54.16h0A1.6,1.6,0,0,1,99,120.7c.32-.91.64-1,1.38-1.71,1.55-1.48,8.55-8.25,9.1-8.52a1.66,1.66,0,0,1,2.47,1.79c-.12.67-2.55,2.74-3.27,3.42-1.06,1-6.62,6.38-7.27,6.79Zm-27.08-51h0c-1.5-1-2.46.58-4.11,2.14l-8.46,8a13.52,13.52,0,0,0-2,2,1.67,1.67,0,0,0,.47,2.06,1.84,1.84,0,0,0,2.08-.08c.58-.42,1.57-1.47,2.15-2l8.57-8.09c.8-.76,3.37-2.69,1.29-4ZM113,139.38h0c.42-.27,8-7.46,8.52-8,1.11-1,4.1-3.48,4.29-4.56a1.84,1.84,0,0,0-.54-1.49c-1.49-1.23-2.73.54-4.15,1.88l-2.14,2c-1.29,1.21-7.89,7.28-8.46,8.11a.69.69,0,0,0-.18.52,1.21,1.21,0,0,0,0,.53,1.53,1.53,0,0,0,.59,1,2.61,2.61,0,0,0,1,.32,2.09,2.09,0,0,0,1-.35ZM43.3,82.28h0a1.64,1.64,0,0,0,2.28.59A31.76,31.76,0,0,0,48,80.64c1.62-1.41,3.3-3.12,4.88-4.62l7.26-6.84A1.89,1.89,0,0,0,60.93,68a1.69,1.69,0,0,0-.13-1.23,1.59,1.59,0,0,0-2.31-.52c-.81.55-12.28,11.65-14.55,13.68-.88.79-1.12,1.47-.64,2.32Zm90.21,33.26h0l13.13-12.39c.86-.81,1.15-1.27,2.08-1.29a1.84,1.84,0,0,1,1.27.64,1.71,1.71,0,0,1,.11,1.66c-.27.7-.63.88-1.41,1.6l-12.9,12.18a2.78,2.78,0,0,1-1.51,1,1.81,1.81,0,0,1-1.49-.41,1.76,1.76,0,0,1-.41-1.5c.1-.58.64-1,1.13-1.48ZM96.33,136.62h0c.36-.16,13.08-12.29,14.56-13.68,2.1-2-.23-3.9-1.58-3-.61.42-13.64,12.79-14.62,13.75-.83.8-1.2,1.41-.64,2.31a1.78,1.78,0,0,0,1.07.8,1.18,1.18,0,0,0,.59,0,4.57,4.57,0,0,0,.62-.22ZM81.8,64.44h0a1.87,1.87,0,0,0,1.13.74c1.22.3,2.53-1.39,3.65-2.45l4.89-4.61,7.31-6.9a1.91,1.91,0,0,0,.53-2.39,1.75,1.75,0,0,0-1.14-.71c-1.15-.22-2.44,1.4-3.62,2.48-.35.31-.72.75-1.12,1.12-3.65,3.41-7.34,7-11,10.37-.82.75-1,1.14-.72,2a1.67,1.67,0,0,0,.07.3Zm35.38,51.33h0l.06-.21-.06.21Zm1-78.26h0a1.89,1.89,0,0,1-1.2.23,1.65,1.65,0,0,1-1.4-2c.07-.55.3-.75.79-1.21.76-.72,4.42-4.25,4.94-4.62a1.68,1.68,0,0,1,2.52,1.74c-.1.66-.13.65-.73,1.21-.75.71-4.44,4.27-4.92,4.61Zm9.17,9.82h0a2.5,2.5,0,0,1-.71.2,1.66,1.66,0,0,1-1.83-1.43,1.6,1.6,0,0,1,0-.75,1.75,1.75,0,0,1,.48-.74c.75-.8,3.68-3.47,4.62-4.36a37.69,37.69,0,0,1,3.07-2.84,1.63,1.63,0,0,1,2.2.48,1.15,1.15,0,0,1,.3.77c.15,1.27-.81,1.8-2,2.94-.76.72-5.75,5.52-6.14,5.73ZM141.58,43h0a1,1,0,0,1-.62.16,1.15,1.15,0,0,1-.59-.09,1.74,1.74,0,0,1-.11-3.23,1.71,1.71,0,0,1,2.22.91,1.69,1.69,0,0,1-.9,2.25Zm-2.49,11.73h0a1.92,1.92,0,0,1-1.19.21,1.67,1.67,0,0,1-1.38-1.91,1.85,1.85,0,0,1,.75-1.23c.74-.71,4.44-4.28,5-4.61a1.34,1.34,0,0,1,1.17-.22c1.49.35,1.9,2,.61,3.18-.75.72-4.39,4.31-4.93,4.58Zm4.39,14.37h0a1.73,1.73,0,0,1-2.63-1.78c.11-.88,2.38-2.71,3.21-3.48s6.87-6.62,7.35-6.86A1.7,1.7,0,0,1,154,58.75c-.16.79-.63,1.12-1.28,1.73C151.42,61.69,143.88,68.92,143.48,69.13Z"/><path class="cls-1" d="M77.85,121.43c-.62.35-1.24.68-1.87,1a1.7,1.7,0,0,1-1.23-.73c-1.08-1.34.67-2.5,1.44-3.23,6.65-6.28,13.46-12.62,20-18.93.56-.53,1-1.13,1.64-1.17a1.6,1.6,0,0,1,1.58.74,2.07,2.07,0,0,1,.25.86,1.81,1.81,0,0,1-.18.79c-.19.55-1,1.14-1.48,1.58L78,121.28l-.15.15ZM61,128h0c4.52-4.26,9.07-8.49,13.56-12.77.87-.82,1.09-1,1-2A1.71,1.71,0,0,0,73.82,112c-.84.08-1.37.73-2.07,1.38l-10.44,9.85c-.72.67-1.19,1.31-2.07,1.2a1.74,1.74,0,0,1-1.55-1.52c-.08-.92.32-1.22,1.13-2l14.61-13.8a26.41,26.41,0,0,0,2.08-2,2,2,0,0,0,.31-1,1.65,1.65,0,0,0-2.38-1.46,22.68,22.68,0,0,0-2.08,1.91c-5.6,5.22-11.11,10.54-16.71,15.76a4.65,4.65,0,0,1-2.07,1.48,1.79,1.79,0,0,1-1.89-2.18,3.05,3.05,0,0,1,.68-1c2.77-2.63,5.66-5.18,8.36-7.87,1.31-1.3,2-1.37,1.52-3a1.67,1.67,0,0,0-2.8-.36l-4.18,4c-.79.74-1.18,1.14-2.05.92a1.76,1.76,0,0,1-1.33-1.66c0-.9.72-1.41,1.33-2l10.45-9.86a29.45,29.45,0,0,1-6.43,1.57l-3,2.81L42.84,113c-.83.8-1.49,1.52-2.54,1.34s-2-1.75-.61-3.14,2.81-2.64,4.18-3.93l4.18-3.94c.6-.57,1.52-1.3,1.69-2a1.57,1.57,0,0,0-.12-1c-4.69-.44-6.28-1.86-9.19-3.6l-7.2,6.83c-.66.63-1.1,1.06-1.84,1a1.68,1.68,0,0,1-1.05-3c.55-.58,1.27-1.2,1.87-1.76s5.23-4.79,5.55-5.3h0c-.35-.33-.7-.68-1-1s-.8-.88-1.18-1.33c-1,.63-2.26,2.18-3.07,2.7a1.61,1.61,0,0,1-1.82-.19c-1.63-1.53.08-2.78,1-3.61l1.89-1.78a21.78,21.78,0,0,1-1.52-3Q26.91,91,21.85,95.79c-.7.65-1.05,1.16-1.84,1.28a1.69,1.69,0,0,1-1.63-2.64c.65-.74,8.36-8,12.48-11.83-1.2-5.35-1.28-9.37,1.69-15.42C27.64,71.77,22.77,76.41,17.88,81c-1.23,1.17-2.47,2.38-3.73,3.52a1.24,1.24,0,0,1-.9.44,2.1,2.1,0,0,1-.43,0,1.69,1.69,0,0,1-1.19-2.69c.28-.32.6-.6.91-.89l5.66-5.34c.68-.64,1.2-1,1.41-1.76a1.66,1.66,0,0,0-1.67-2,1.18,1.18,0,0,0-.9.36c-.82.6-8.28,7.78-9.4,8.83-.69.66-1.12,1-1.85.92a3,3,0,0,1-.91-.32,1.31,1.31,0,0,1-.58-.91c-.4-1.51,1.34-2.61,2.37-3.58C12.29,72.31,18,67.05,23.54,61.69c.66-.64,1.23-1,1.27-1.77A1.69,1.69,0,0,0,22,58.68L10.73,69.26c-.61.58-1.07,1.23-1.87,1.34a1.7,1.7,0,0,1-1.49-2.8C9.19,66,11.11,64.26,13,62.5l11.2-10.58a2,2,0,0,0,.9-1.77A1.66,1.66,0,0,0,23,48.76a2.45,2.45,0,0,0-.91.68L5.18,65.36c-.61.58-1.24,1.2-1.87,1.76a4.9,4.9,0,0,1-1.09.76A58.93,58.93,0,0,0,.5,76a51.62,51.62,0,0,0-.49,8c.06,2,.13,2.77.3,4.54Q2,102.79,12.84,114.27a49.89,49.89,0,0,0,11,8.87,39,39,0,0,0,10.92,4.59,51.74,51.74,0,0,0,16.37,1.6A60,60,0,0,0,61,128ZM4.69,61h0a64,64,0,0,1,4.05-7.89,1.73,1.73,0,0,1,1.35.28c.4.24.39.51.52.86.26.72,0,1.24-.68,1.86L8.06,57.84c-1,1-2.2,2-3.37,3.13ZM48.58,45.24h0a2.53,2.53,0,0,1,.25.69c.12.39,0,.26,0,.66a3,3,0,0,1-1,1.49c-1.37,1.19-3.58,3.36-5,4.66L29.85,65.08c-1.07,1-2.21,2.18-3.29,3.12a1.69,1.69,0,0,1-2.83-.94c0-.72,0-.84.61-1.51,1.29-1.31,3.55-3.36,4.95-4.67L42.37,48.73a10.91,10.91,0,0,1,1.53-1.4,10.64,10.64,0,0,0,1.62-1.42,4.26,4.26,0,0,1,1.66-1.24,1.15,1.15,0,0,1,1.4.57ZM95.47,95.33h0c.47-.08,1.65-1.42,1.92-1.82a5,5,0,0,1,.87-.79c1.24-.8.47-.1,1.33-1.31.18-.24.24-.29.25-.57v-.23c.49-.67-.7-1.63-1.25-1.74-.31-.05-.27-.07-.54.06s-.39.18-.53.26c-.32.19-5.22,4.82-5.44,5.1-.22,0-.19.1-.44.17l-.48.05c-.69,0-.72-.13-1-.43-.43-.65-.67-.52-.72-1.35A2.28,2.28,0,0,1,90,91.35l.8-.73c.76-.52,4.23-3.93,5.36-5,.75-.71,1.84-1.43,1.6-2.58a1.65,1.65,0,0,0-2.2-1.24C95,82,82.94,93.61,81.14,95.32c-.72.69-1.19.93-1.25,1.73a1.65,1.65,0,0,0,2.66,1.42,1.74,1.74,0,0,1,1.78-.5,1.93,1.93,0,0,1,1.19,1.54c.06.8-.25,1-1,1.74l-3.63,3.42c-.65.62-1.71,1.52-1.22,2.59a1.61,1.61,0,0,0,2.55.66c.87-.69,7.73-7.27,9.06-8.53a29,29,0,0,0,3.39-3.34l.77-.72ZM48.52,36.16h0v0Zm-.33-.89h0c1.42.48,1.31,2.56.34,2.75a14.46,14.46,0,0,0-1.75,1.75c-.54.71-1.53,1.12-2.18,1.95s-9.67,9.22-11.17,10.64-2,2.36-3.32,2.14a1.69,1.69,0,0,1-.53-3l4.51-4.25a1.57,1.57,0,0,0,.68-1.61,1.75,1.75,0,0,0-2.34-1.36c-.52.2-.89,1.09-2.2.67a1.24,1.24,0,0,1-.94-.81c-.5-1.53.41-1.9,1.88-3.28.27-.26,13-12.36,13.5-12.7a1.73,1.73,0,0,1,2.12.47,1.8,1.8,0,0,1-.24,2.21c-1.93,1.94-4.65,4.39-6.76,6.38-.87.82-1.25,1.17-1,2.18.13.63,1.34,2.12,3,.59l3.41-3.22c.62-.58,1.5-1.68,2.25-1.61.18,0,0,0,.18,0h.16a.8.8,0,0,1,.42.13Zm-.39.41h0l.05-.21-.05.21Zm.05-.21h0v0l-.43-.29.42.33ZM71.73,2.68h0A1.62,1.62,0,0,1,73.8,4.85c-.18.62-1,1.14-1.49,1.65S71,7.93,70.52,8a1.62,1.62,0,0,1-.86.11A1.68,1.68,0,0,1,68.31,6a21.38,21.38,0,0,1,3.42-3.29ZM60.35,4h0L63.64.84c1.89-1.78,3.25-.34,3.25.77,0,.82-.55,1.23-1.31,1.94-1.11,1-3,2.87-4,3.78a1.49,1.49,0,0,1-2,.33,1.56,1.56,0,0,1-.79-1.8c.28-.9.77-1.17,1.56-1.91Zm23-3.16h0a1.63,1.63,0,0,1,2.48,1.74c-.09.47-.42.74-.84,1.14-.75.72-4.37,4.21-4.88,4.56-1.37.91-3.65-1.05-1.61-2.95C79.29,4.57,82.86,1,83.38.79Zm19.19,77h0a1.24,1.24,0,0,1-.56-.69,2.47,2.47,0,0,1-.15-.75c0-.73.29-.86.87-1.41l6-5.71c.72-.67,1.37-1.56,2.29-1.36a1.55,1.55,0,0,1,1.39,1.74c0,.62-.25.89-.83,1.43l-6.05,5.7c-.62.59-1.68,1.89-3,1ZM59.3,14.35h0a1.59,1.59,0,0,1,2.21.52,1.3,1.3,0,0,1,.2.75A1.68,1.68,0,0,1,61.16,17c-1.21,1.17-7.27,7-7.62,7.11a1.64,1.64,0,0,1-1.82-2.7c1.18-1.12,7-6.7,7.58-7.09Zm21.38-1.7h0a1.49,1.49,0,0,1,2.2.43,1.13,1.13,0,0,1,.27.76c.16,1.13-1.07,1.95-2,2.86-.77.73-5.7,5.5-6.09,5.66a1.89,1.89,0,0,1-2.16-.44,4.35,4.35,0,0,1-.28-.75c-.25-1.12,1.13-2,2-2.87s5.39-5.2,6.06-5.65ZM116.5,82.93h0a1.72,1.72,0,0,1,.12,1.77c-.18.47-1.26,1.32-1.7,1.74l-7.25,6.84a5,5,0,0,1-1.82,1.4,1.66,1.66,0,0,1-1.76-.55c-1.2-1.34.72-2.67,1.6-3.5L113,83.79c.44-.42,1.28-1.37,1.81-1.49a1.72,1.72,0,0,1,1.74.63ZM63.59,28.78h0A1.6,1.6,0,0,1,66,30.54c-.32.92-.64,1-1.38,1.72-1.55,1.47-8.55,8.25-9.1,8.51A1.65,1.65,0,0,1,53.06,39c.11-.68,2.54-2.75,3.26-3.42,1.06-1,6.62-6.39,7.27-6.79Zm27.08,51h0c1.5,1,2.46-.58,4.11-2.14l8.46-8a14,14,0,0,0,2-2,1.65,1.65,0,0,0-.47-2.06,1.84,1.84,0,0,0-2.08.07c-.58.42-1.57,1.48-2.14,2L92,75.76c-.8.76-3.37,2.69-1.29,4ZM52,11.87h0c-.42.26-8,7.46-8.52,8-1.11,1.05-4.1,3.48-4.29,4.56a1.82,1.82,0,0,0,.54,1.48c1.49,1.23,2.73-.53,4.15-1.88L46,22c1.29-1.21,7.89-7.27,8.46-8.1a.72.72,0,0,0,.18-.53,1.21,1.21,0,0,0,0-.53,1.51,1.51,0,0,0-.58-1,2.67,2.67,0,0,0-1-.33,2.1,2.1,0,0,0-1,.36ZM121.73,69h0a1.65,1.65,0,0,0-2.28-.59c-.49.27-1.88,1.75-2.44,2.23-1.62,1.41-3.3,3.13-4.88,4.62l-7.25,6.84a1.83,1.83,0,0,0-.77,1.16,1.62,1.62,0,0,0,.13,1.22,1.57,1.57,0,0,0,2.3.53c.81-.55,12.28-11.65,14.55-13.68.89-.79,1.13-1.47.64-2.33ZM31.52,35.7h0L18.39,48.09c-.86.81-1.15,1.27-2.08,1.29A1.81,1.81,0,0,1,15,48.74a1.71,1.71,0,0,1-.11-1.66c.27-.69.63-.87,1.41-1.6L29.24,33.3c.65-.61.78-.8,1.51-1a1.81,1.81,0,0,1,1.49.4,1.78,1.78,0,0,1,.41,1.51c-.1.57-.64,1-1.13,1.47ZM68.7,14.62h0c-.36.17-13.08,12.29-14.56,13.68-2.1,2,.23,3.91,1.59,3,.6-.42,13.63-12.8,14.62-13.75.83-.81,1.19-1.42.63-2.32a1.72,1.72,0,0,0-1.07-.79,1.3,1.3,0,0,0-.59,0,4.57,4.57,0,0,0-.62.22ZM83.24,86.8h0a2,2,0,0,0-1.14-.74c-1.21-.3-2.53,1.39-3.65,2.45l-4.89,4.62L66.25,100a1.91,1.91,0,0,0-.52,2.4,1.7,1.7,0,0,0,1.13.7c1.15.22,2.44-1.4,3.62-2.47.35-.31.72-.76,1.12-1.13,3.65-3.41,7.34-7,11-10.37.82-.75,1-1.13.72-2.05,0-.07,0-.26-.06-.3ZM47.85,35.47h0l-.05.21.05-.21Zm-1,78.26h0a1.9,1.9,0,0,1,1.21-.22,1.64,1.64,0,0,1,1.39,1.95c-.07.56-.3.75-.79,1.21-.76.73-4.42,4.25-4.94,4.62a1.68,1.68,0,0,1-2.52-1.74c.11-.65.14-.64.73-1.2.75-.72,4.44-4.28,4.92-4.62Zm-9.17-9.81h0a2.2,2.2,0,0,1,.72-.2,1.65,1.65,0,0,1,1.82,1.43,1.74,1.74,0,0,1,0,.75,1.85,1.85,0,0,1-.49.73c-.75.81-3.68,3.48-4.62,4.36A36,36,0,0,1,32,113.83a1.63,1.63,0,0,1-2.2-.48,1.12,1.12,0,0,1-.3-.76c-.15-1.28.81-1.81,2-2.94.77-.73,5.75-5.53,6.14-5.73Zm-14.19,4.29h0a1.1,1.1,0,0,1,.62-.16,1.27,1.27,0,0,1,.59.1,1.72,1.72,0,1,1-2.11,2.31,1.69,1.69,0,0,1,.9-2.25Zm2.49-11.73h0a1.92,1.92,0,0,1,1.19-.2,1.66,1.66,0,0,1,1.38,1.9c0,.52-.3.79-.75,1.23-.74.71-4.44,4.29-5,4.62a1.33,1.33,0,0,1-1.17.21c-1.49-.35-1.9-1.95-.61-3.18.75-.72,4.39-4.3,4.93-4.58ZM21.55,82.12h0a1.73,1.73,0,0,1,2.63,1.78c-.11.87-2.38,2.7-3.2,3.48S14.1,94,13.62,94.23a1.78,1.78,0,0,1-.86.27,1.69,1.69,0,0,1-1.72-2c.16-.78.63-1.11,1.28-1.73C13.61,89.55,21.15,82.32,21.55,82.12Z"/></g></g></svg>